<svg width="46" height="46" viewBox="0 0 46 46" fill="none" xmlns="http://www.w3.org/2000/svg">
<path d="M23 1C10.8494 1 1 10.8494 1 23C1 35.1506 10.8494 45 23 45C35.1506 45 45 35.1506 45 23C45 10.8494 35.1506 1 23 1Z" stroke="#8E6CEF" stroke-width="2" stroke-linecap="round" stroke-linejoin="round"/>
<path d="M14.2002 43.1696V27.4L23.0002 12L31.8002 27.4V43.1696" stroke="#8E6CEF" stroke-width="2" stroke-linecap="round" stroke-linejoin="round"/>
<path d="M14.2002 27.3999C14.2002 27.3999 16.6796 29.5999 18.6002 29.5999C20.5208 29.5999 23.0002 27.3999 23.0002 27.3999C23.0002 27.3999 25.4796 29.5999 27.4002 29.5999C29.3208 29.5999 31.8002 27.3999 31.8002 27.3999" stroke="#8E6CEF" stroke-width="2" stroke-linecap="round" stroke-linejoin="round"/>
</svg>
