<svg width="46" height="46" viewBox="0 0 46 46" fill="none" xmlns="http://www.w3.org/2000/svg">
<path d="M23 0C16.9 9.08968e-08 11.0499 2.42321 6.73654 6.73654C2.42321 11.0499 0 16.9 0 23C0 29.1 2.42321 34.9501 6.73654 39.2635C11.0499 43.5768 16.9 46 23 46C25.1211 46 26.8333 44.2878 26.8333 42.1667C26.8333 41.17 26.45 40.2756 25.8367 39.5856C25.2489 38.9211 24.8656 38.0267 24.8656 37.0556C24.8656 34.9344 26.5778 33.2222 28.6989 33.2222H33.2222C40.2756 33.2222 46 27.4978 46 20.4444C46 9.14889 35.7011 0 23 0ZM8.94444 23C6.82333 23 5.11111 21.2878 5.11111 19.1667C5.11111 17.0456 6.82333 15.3333 8.94444 15.3333C11.0656 15.3333 12.7778 17.0456 12.7778 19.1667C12.7778 21.2878 11.0656 23 8.94444 23ZM16.6111 12.7778C14.49 12.7778 12.7778 11.0656 12.7778 8.94444C12.7778 6.82333 14.49 5.11111 16.6111 5.11111C18.7322 5.11111 20.4444 6.82333 20.4444 8.94444C20.4444 11.0656 18.7322 12.7778 16.6111 12.7778ZM29.3889 12.7778C27.2678 12.7778 25.5556 11.0656 25.5556 8.94444C25.5556 6.82333 27.2678 5.11111 29.3889 5.11111C31.51 5.11111 33.2222 6.82333 33.2222 8.94444C33.2222 11.0656 31.51 12.7778 29.3889 12.7778ZM37.0556 23C34.9344 23 33.2222 21.2878 33.2222 19.1667C33.2222 17.0456 34.9344 15.3333 37.0556 15.3333C39.1767 15.3333 40.8889 17.0456 40.8889 19.1667C40.8889 21.2878 39.1767 23 37.0556 23Z" fill="#D4C7FA"/>
<circle cx="8.6251" cy="18.9751" r="4.025" fill="#8E6CEF"/>
<circle cx="16.6749" cy="8.62498" r="4.025" fill="#8E6CEF"/>
<circle cx="29.3248" cy="8.62498" r="4.025" fill="#8E6CEF"/>
<circle cx="37.3751" cy="18.9751" r="4.025" fill="#8E6CEF"/>
</svg>
