<svg width="70" height="70" viewBox="0 0 70 70" fill="none" xmlns="http://www.w3.org/2000/svg">
<rect width="70" height="70" rx="16" fill="#8770C9"/>
<path d="M38.3333 21C36.8587 21 35.6667 22.192 35.6667 23.6667V30.3333C35.6667 31.808 36.8587 33 38.3333 33C39.808 33 41 31.808 41 30.3333V23.6667C41 22.192 39.808 21 38.3333 21ZM46.3333 27.6667C44.8587 27.6667 43.6667 28.8587 43.6667 30.3333V32.3333C43.6667 32.5101 43.7369 32.6797 43.8619 32.8047C43.987 32.9298 44.1565 33 44.3333 33H46.3333C47.808 33 49 31.808 49 30.3333C49 28.8587 47.808 27.6667 46.3333 27.6667ZM31.6667 37C30.192 37 29 38.192 29 39.6667V46.3333C29 47.808 30.192 49 31.6667 49C33.1413 49 34.3333 47.808 34.3333 46.3333V39.6667C34.3333 38.192 33.1413 37 31.6667 37ZM23.6667 37C22.192 37 21 38.192 21 39.6667C21 41.1413 22.192 42.3333 23.6667 42.3333C25.1413 42.3333 26.3333 41.1413 26.3333 39.6667V37.6667C26.3333 37.4899 26.2631 37.3203 26.1381 37.1953C26.013 37.0702 25.8435 37 25.6667 37H23.6667ZM39.6667 35.6667C38.192 35.6667 37 36.8587 37 38.3333C37 39.808 38.192 41 39.6667 41H46.3333C47.808 41 49 39.808 49 38.3333C49 36.8587 47.808 35.6667 46.3333 35.6667H39.6667ZM37.6667 43.6667C37.4899 43.6667 37.3203 43.7369 37.1953 43.8619C37.0702 43.987 37 44.1565 37 44.3333V46.3333C37 47.808 38.192 49 39.6667 49C41.1413 49 42.3333 47.808 42.3333 46.3333C42.3333 44.8587 41.1413 43.6667 39.6667 43.6667H37.6667ZM23.6667 29C22.192 29 21 30.192 21 31.6667C21 33.1413 22.192 34.3333 23.6667 34.3333H30.3333C31.808 34.3333 33 33.1413 33 31.6667C33 30.192 31.808 29 30.3333 29H23.6667ZM30.3333 21C28.8587 21 27.6667 22.192 27.6667 23.6667C27.6667 25.1413 28.8587 26.3333 30.3333 26.3333H32.3333C32.5101 26.3333 32.6797 26.2631 32.8047 26.1381C32.9298 26.013 33 25.8435 33 25.6667V23.6667C33 22.192 31.808 21 30.3333 21Z" fill="white"/>
</svg>
