<svg width="24" height="24" viewBox="0 0 24 24" fill="none" xmlns="http://www.w3.org/2000/svg">
<path d="M14.8571 0C13.5931 0 12.5714 1.02171 12.5714 2.28571V8C12.5714 9.264 13.5931 10.2857 14.8571 10.2857C16.1211 10.2857 17.1429 9.264 17.1429 8V2.28571C17.1429 1.02171 16.1211 0 14.8571 0ZM21.7143 5.71429C20.4503 5.71429 19.4286 6.736 19.4286 8V9.71429C19.4286 9.86584 19.4888 10.0112 19.5959 10.1183C19.7031 10.2255 19.8484 10.2857 20 10.2857H21.7143C22.9783 10.2857 24 9.264 24 8C24 6.736 22.9783 5.71429 21.7143 5.71429ZM9.14286 13.7143C7.87886 13.7143 6.85714 14.736 6.85714 16V21.7143C6.85714 22.9783 7.87886 24 9.14286 24C10.4069 24 11.4286 22.9783 11.4286 21.7143V16C11.4286 14.736 10.4069 13.7143 9.14286 13.7143ZM2.28571 13.7143C1.02171 13.7143 0 14.736 0 16C0 17.264 1.02171 18.2857 2.28571 18.2857C3.54971 18.2857 4.57143 17.264 4.57143 16V14.2857C4.57143 14.1342 4.51122 13.9888 4.40406 13.8817C4.2969 13.7745 4.15155 13.7143 4 13.7143H2.28571ZM16 12.5714C14.736 12.5714 13.7143 13.5931 13.7143 14.8571C13.7143 16.1211 14.736 17.1429 16 17.1429H21.7143C22.9783 17.1429 24 16.1211 24 14.8571C24 13.5931 22.9783 12.5714 21.7143 12.5714H16ZM14.2857 19.4286C14.1342 19.4286 13.9888 19.4888 13.8817 19.5959C13.7745 19.7031 13.7143 19.8484 13.7143 20V21.7143C13.7143 22.9783 14.736 24 16 24C17.264 24 18.2857 22.9783 18.2857 21.7143C18.2857 20.4503 17.264 19.4286 16 19.4286H14.2857ZM2.28571 6.85714C1.02171 6.85714 0 7.87886 0 9.14286C0 10.4069 1.02171 11.4286 2.28571 11.4286H8C9.264 11.4286 10.2857 10.4069 10.2857 9.14286C10.2857 7.87886 9.264 6.85714 8 6.85714H2.28571ZM8 0C6.736 0 5.71429 1.02171 5.71429 2.28571C5.71429 3.54971 6.736 4.57143 8 4.57143H9.71429C9.86584 4.57143 10.0112 4.51122 10.1183 4.40406C10.2255 4.2969 10.2857 4.15155 10.2857 4V2.28571C10.2857 1.02171 9.264 0 8 0Z" fill="#8E6CEF"/>
</svg>
