<svg width="40" height="40" viewBox="0 0 40 40" fill="none" xmlns="http://www.w3.org/2000/svg">
<path d="M39.3391 1.47743C39.3391 1.07405 38.9402 0.872363 38.5414 0.670675C30.9631 -1.34621 22.7866 1.27574 17.8009 7.32641L15.2084 10.3517L9.82382 8.93992C7.63012 8.13316 5.43642 9.14161 4.43928 11.1585L0.251304 18.621C0.251304 18.621 0.251304 18.8227 0.051877 18.8227C-0.14755 19.4277 0.251304 19.8311 0.849586 20.0328L7.63012 21.4446C7.03183 23.2598 6.43355 25.075 6.23413 26.8902C6.23413 27.2936 6.23413 27.4953 6.43355 27.697L12.4164 33.546C12.6158 33.7477 12.8152 33.7477 13.2141 33.7477C15.0089 33.546 17.0032 33.1426 18.798 32.5375L20.194 39.1932C20.194 39.5966 20.7923 40 21.1912 40C21.3906 40 21.59 40 21.59 39.7983L28.9688 35.5629C30.7637 34.5544 31.5614 32.3358 31.1625 30.3189L29.7666 24.47L32.5585 21.848C38.7408 17.2092 41.3333 9.14161 39.3391 1.47743ZM2.64443 18.4193L6.0347 12.1669C6.63298 10.9568 7.82954 10.5534 9.02611 10.9568L13.6129 12.1669L11.6187 14.5872C10.4221 16.2007 9.22554 17.8142 8.42783 19.6294L2.64443 18.4193ZM28.1711 34.3527L21.9889 37.9831L20.7923 32.1341C22.5872 31.3274 24.1826 30.1172 25.778 28.9071L28.3706 26.4868L29.5671 31.1257C29.5671 32.3358 29.1683 33.7477 28.1711 34.3527ZM31.362 20.8396L24.382 27.2936C21.3906 29.9156 17.6015 31.5291 13.6129 31.9324L8.42783 26.6885C9.02611 22.6548 10.6215 18.8227 13.2141 15.7973L16.4049 12.1669L16.6043 11.9653L19.3963 8.73823C23.7837 3.49432 30.9631 1.07405 37.5442 2.48587C38.9402 9.3433 36.7465 16.4024 31.362 20.8396ZM28.9688 7.32641C26.7751 7.32641 25.1797 9.14161 25.1797 11.1585C25.1797 13.1754 26.9746 14.9906 28.9688 14.9906C31.1625 14.9906 32.758 13.1754 32.758 11.1585C32.758 9.14161 31.1625 7.32641 28.9688 7.32641ZM28.9688 13.1754C27.9717 13.1754 27.174 12.3686 27.174 11.3602C27.174 10.3517 27.9717 9.54498 28.9688 9.54498C29.966 9.54498 30.7637 10.3517 30.7637 11.3602C30.7637 12.3686 29.966 13.1754 28.9688 13.1754Z" fill="#8E6CEF"/>
</svg>
