<svg width="16" height="16" viewBox="0 0 16 16" fill="none" xmlns="http://www.w3.org/2000/svg">
<rect width="16" height="16" rx="8" fill="#8E6CEF"/>
<path d="M10.4103 11.9999C10.0616 11.9999 9.57189 11.8739 8.83852 11.4642C7.94673 10.9642 7.25695 10.5026 6.36998 9.61812C5.51481 8.76364 5.09865 8.21042 4.51621 7.15077C3.85822 5.95432 3.97038 5.32717 4.09577 5.05913C4.24508 4.73877 4.46548 4.54716 4.75036 4.35698C4.91217 4.25099 5.08341 4.16013 5.2619 4.08555C5.27976 4.07787 5.29637 4.07055 5.31119 4.06394C5.3996 4.02412 5.53356 3.96394 5.70324 4.02823C5.81647 4.07073 5.91757 4.15769 6.07581 4.31395C6.40034 4.63395 6.84383 5.34664 7.00743 5.69664C7.11728 5.93254 7.18997 6.08825 7.19015 6.2629C7.19015 6.46736 7.08727 6.62504 6.96242 6.79522C6.93903 6.82719 6.91581 6.85773 6.8933 6.88737C6.75738 7.06594 6.72755 7.11755 6.7472 7.20969C6.78703 7.39488 7.08406 7.94613 7.57219 8.4331C8.06033 8.92007 8.59579 9.19829 8.78172 9.23793C8.87782 9.25847 8.9305 9.2274 9.11483 9.08668C9.14126 9.0665 9.16841 9.04561 9.19681 9.02472C9.3872 8.88311 9.53759 8.78293 9.73728 8.78293H9.73835C9.91213 8.78293 10.0609 8.85829 10.3074 8.98257C10.6289 9.14472 11.3631 9.5824 11.6852 9.90723C11.8418 10.0651 11.9292 10.1658 11.9718 10.2788C12.0361 10.449 11.9756 10.5824 11.9361 10.6717C11.9295 10.6865 11.9222 10.7028 11.9145 10.7208C11.8393 10.8989 11.7479 11.0698 11.6414 11.2312C11.4516 11.5151 11.2592 11.7349 10.9381 11.8844C10.7732 11.9624 10.5927 12.0019 10.4103 11.9999Z" fill="white"/>
</svg>
