<svg width="36" height="40" viewBox="0 0 36 40" fill="none" xmlns="http://www.w3.org/2000/svg">
<path d="M24.611 1V6.7M7.61109 1V6.7M16.1111 1V6.7M31.2221 20V17.15C31.2221 10.88 31.2221 7.745 29.286 5.7975C27.3499 3.85 24.2332 3.85 17.9999 3.85H14.2222C7.98886 3.85 4.87221 3.85 2.9361 5.7975C1 7.745 1 10.88 1 17.15V25.7C1 31.97 1 35.105 2.9361 37.0525C4.87221 39 7.98886 39 14.2222 39H16.1111M8.55553 25.7H16.1111M8.55553 18.1H23.6666M25.0587 38.3407L21.7777 39L22.4331 35.6997C22.5654 35.0309 22.894 34.4153 23.3757 33.9327L31.054 26.2073C31.2136 26.0464 31.4033 25.9188 31.612 25.8318C31.8207 25.7447 32.0445 25.6999 32.2704 25.6999C32.4964 25.6999 32.7202 25.7447 32.9289 25.8318C33.1376 25.9188 33.3272 26.0464 33.4869 26.2073L34.4955 27.2219C34.6555 27.3825 34.7823 27.5732 34.8689 27.7832C34.9554 27.9931 35 28.2182 35 28.4455C35 28.6728 34.9554 28.8979 34.8689 29.1078C34.7823 29.3178 34.6555 29.5085 34.4955 29.6691L26.8172 37.3926C26.3385 37.8784 25.7259 38.2087 25.0587 38.3407Z" stroke="#8E6CEF" stroke-width="2" stroke-linecap="round" stroke-linejoin="round"/>
</svg>
