<svg width="24" height="24" viewBox="0 0 24 24" fill="none" xmlns="http://www.w3.org/2000/svg">
<rect width="24" height="24" rx="5" fill="#8E6CEF"/>
<path d="M11.7459 15.5978C11.9027 15.5053 12.0973 15.5053 12.2541 15.5978L15.3124 17.402C15.6923 17.6262 16.1552 17.2844 16.0528 16.8553L15.2494 13.489C15.2056 13.3056 15.2687 13.1132 15.4126 12.9914L18.0787 10.7338C18.4187 10.4459 18.2409 9.89073 17.7969 9.85392L14.2653 9.56105C14.0816 9.54582 13.9212 9.43078 13.8479 9.26168L12.4587 6.05793C12.2847 5.65648 11.7153 5.65648 11.5413 6.05793L10.1521 9.26168C10.0788 9.43077 9.91836 9.54582 9.73468 9.56105L6.20306 9.85392C5.75912 9.89073 5.58132 10.4459 5.92128 10.7338L8.5874 12.9914C8.73129 13.1132 8.79441 13.3056 8.75064 13.489L7.9472 16.8553C7.8448 17.2844 8.30769 17.6262 8.6876 17.402L11.7459 15.5978Z" fill="white"/>
</svg>
