<svg width="24" height="24" viewBox="0 0 24 24" fill="none" xmlns="http://www.w3.org/2000/svg">
<rect width="24" height="24" rx="5" fill="#8E6CEF"/>
<path d="M12 0H19C21.7614 0 24 2.23858 24 5V19C24 21.7614 21.7614 24 19 24H12V0Z" fill="#D2D2D2"/>
<path d="M11.245 16.4028C11.4022 16.3096 11.5978 16.3096 11.755 16.4028L15.1212 18.3989C15.5008 18.624 15.9647 18.2827 15.8627 17.8533L14.9757 14.1179C14.9323 13.9351 14.9951 13.7434 15.1381 13.6216L18.0845 11.1139C18.4232 10.8257 18.2452 10.2718 17.802 10.2349L13.9063 9.91017C13.7224 9.89484 13.5618 9.77942 13.4887 9.60995L11.9591 6.06421C11.7854 5.66162 11.2146 5.66162 11.0409 6.06421L9.51127 9.60995C9.43816 9.77942 9.27763 9.89484 9.0937 9.91017L5.19803 10.2349C4.75481 10.2718 4.5768 10.8257 4.91549 11.1139L7.86187 13.6216C8.00494 13.7434 8.06768 13.9351 8.02427 14.1179L7.13729 17.8533C7.03533 18.2827 7.49916 18.624 7.87879 18.3989L11.245 16.4028Z" fill="white"/>
</svg>
