<svg width="42" height="42" viewBox="0 0 42 42" fill="none" xmlns="http://www.w3.org/2000/svg">
<path d="M30.7582 18.3402C30.9712 18.0718 31.0707 17.7307 31.0356 17.3899C31.0005 17.0491 30.8335 16.7355 30.5703 16.5161C30.307 16.2968 29.9685 16.1891 29.6269 16.216C29.2853 16.2429 28.9678 16.4023 28.7422 16.6602L25.5974 20.4332C24.9499 21.212 24.5492 21.6862 24.2219 21.982C24.1363 22.065 24.0405 22.1367 23.9367 22.1955L23.9174 22.2042L23.8982 22.1955C23.7938 22.1369 23.6973 22.0651 23.6112 21.982C23.2839 21.6845 22.8849 21.212 22.2357 20.4332L21.7247 19.8207C21.1507 19.1295 20.6309 18.5082 20.1479 18.0707C19.6212 17.5947 18.9579 17.1712 18.0829 17.1712C17.2079 17.1712 16.5464 17.5947 16.0179 18.0707C15.5349 18.5082 15.0169 19.1295 14.4429 19.8207L11.2404 23.6602C11.1301 23.7927 11.047 23.9456 10.9958 24.1102C10.9446 24.2749 10.9263 24.4479 10.942 24.6196C10.9736 24.9664 11.1417 25.2863 11.4093 25.5091C11.6769 25.7319 12.022 25.8392 12.3687 25.8076C12.7155 25.7759 13.0354 25.6078 13.2582 25.3402L16.4029 21.5672C17.0504 20.7885 17.4512 20.3142 17.7784 20.0185C17.864 19.9354 17.9599 19.8637 18.0637 19.805L18.0829 19.7962L18.1022 19.805C18.2066 19.8636 18.303 19.9353 18.3892 20.0185C18.7164 20.316 19.1154 20.7885 19.7647 21.5672L20.2757 22.1797C20.8514 22.871 21.3694 23.4922 21.8524 23.9297C22.3792 24.4057 23.0424 24.8292 23.9174 24.8292C24.7924 24.8292 25.4539 24.4057 25.9824 23.9297C26.4654 23.4922 26.9834 22.871 27.5574 22.1797L30.7582 18.3402Z" fill="#8E6CEF"/>
<path fill-rule="evenodd" clip-rule="evenodd" d="M20.9002 2.1875C16.8595 2.1875 13.6938 2.1875 11.2227 2.52C8.69575 2.8595 6.70075 3.57 5.1345 5.1345C3.56825 6.70075 2.8595 8.69575 2.52 11.2245C2.1875 13.6938 2.1875 16.8595 2.1875 20.9002V21.0998C2.1875 25.1405 2.1875 28.3062 2.52 30.7773C2.8595 33.3043 3.57 35.2993 5.1345 36.8655C6.70075 38.4318 8.69575 39.1405 11.2245 39.48C13.6938 39.8125 16.8595 39.8125 20.9002 39.8125H21.0998C25.1405 39.8125 28.3062 39.8125 30.7773 39.48C33.3043 39.1405 35.2993 38.43 36.8655 36.8655C38.4318 35.2993 39.1405 33.3043 39.48 30.7755C39.8125 28.3063 39.8125 25.1405 39.8125 21.0998V20.9002C39.8125 16.8595 39.8125 13.6938 39.48 11.2227C39.1405 8.69575 38.43 6.70075 36.8655 5.1345C35.2993 3.56825 33.3043 2.8595 30.7755 2.52C28.3063 2.1875 25.1405 2.1875 21.0998 2.1875H20.9002ZM6.99125 6.99125C7.98875 5.99375 9.33625 5.4215 11.5745 5.1205C13.8495 4.816 16.8385 4.8125 21 4.8125C25.1615 4.8125 28.1505 4.816 30.4255 5.1205C32.6637 5.4215 34.013 5.9955 35.0105 6.99125C36.0063 7.98875 36.5785 9.33625 36.8795 11.5745C37.184 13.8495 37.1875 16.8385 37.1875 21C37.1875 25.1615 37.184 28.1505 36.8795 30.4255C36.5785 32.6637 36.0045 34.013 35.0087 35.0105C34.0112 36.0063 32.6637 36.5785 30.4255 36.8795C28.1505 37.184 25.1615 37.1875 21 37.1875C16.8385 37.1875 13.8495 37.184 11.5745 36.8795C9.33625 36.5785 7.987 36.0045 6.9895 35.0087C5.99375 34.0112 5.4215 32.6637 5.1205 30.4255C4.816 28.1505 4.8125 25.1615 4.8125 21C4.8125 16.8385 4.816 13.8495 5.1205 11.5745C5.4215 9.33625 5.9955 7.98875 6.99125 6.99125Z" fill="#8E6CEF"/>
</svg>
