<svg width="46" height="46" viewBox="0 0 46 46" fill="none" xmlns="http://www.w3.org/2000/svg">
<path opacity="0.3" fill-rule="evenodd" clip-rule="evenodd" d="M38.259 0.166087L38.8856 0.244725C40.542 0.473267 42.734 0.780448 43.975 2.02391C44.9924 3.03884 45.3831 4.69024 45.6166 6.16471L45.7542 7.11328C46.0638 9.34956 46.1449 12.2788 45.6166 15.5325C44.5746 21.9538 41.1563 29.6161 32.5725 35.5484C32.5258 36.0104 32.5233 36.4773 32.5332 36.9442L32.5577 37.6421C32.597 38.716 32.6364 39.7875 32.3366 40.8319C31.8696 42.4538 30.206 43.5228 28.6504 44.2895L27.8886 44.6507L26.9056 45.0833C25.0674 45.8647 22.5854 46.6658 21.0299 45.1078C20.096 44.1765 19.7127 42.8101 19.4006 41.4512L19.2851 40.9425C19.153 40.3006 18.989 39.6658 18.7936 39.0404C18.6707 38.68 18.538 38.3155 18.3955 37.9468C18.2386 38.1394 18.0721 38.324 17.8966 38.4998C17.0488 39.3476 15.7832 39.9398 14.7413 40.3551C13.6035 40.8048 12.3158 41.198 11.1239 41.5224L10.512 41.6846L9.33979 41.977L8.27818 42.2228L7.00768 42.4931L6.21392 42.6479C5.81805 42.7212 5.4103 42.6971 5.02582 42.5777C4.64134 42.4583 4.29168 42.2471 4.007 41.9624C3.72232 41.6778 3.51116 41.3281 3.39174 40.9436C3.27232 40.5591 3.24822 40.1514 3.32151 39.7555L3.53285 38.6964L3.9113 36.9811L4.21602 35.7278L4.44702 34.8431C4.77141 33.6537 5.1646 32.366 5.61677 31.2306C6.02962 30.1862 6.62186 28.9206 7.46968 28.0728L7.66628 27.8836L7.509 27.8197C7.08896 27.6602 6.66357 27.5151 6.23358 27.3847L5.55287 27.1759C3.84741 26.6598 2.02398 26.1044 0.8911 24.9691C-0.485068 23.5954 -0.0206116 21.5041 0.642898 19.7642L0.913217 19.0909L1.34818 18.1079L1.70943 17.3461C2.47615 15.793 3.54514 14.1293 5.16705 13.6624C6.02716 13.4166 6.92167 13.4019 7.82109 13.4265L8.36173 13.4437C9.06456 13.4682 9.76493 13.4953 10.4506 13.4289C16.3828 4.8426 24.0451 1.4243 30.4664 0.382342C33.0424 -0.0401543 35.6636 -0.112896 38.259 0.166087Z" fill="#8E6CEF"/>
<path fill-rule="evenodd" clip-rule="evenodd" d="M31.7985 14.1759C29.1248 11.4998 24.5539 12.7236 23.5758 16.3778C23.3523 17.2111 23.352 18.0885 23.575 18.9219C23.798 19.7553 24.2365 20.5153 24.8463 21.1256C27.52 23.8017 32.0909 22.5779 33.069 18.9237C33.2925 18.0905 33.2928 17.213 33.0698 16.3796C32.8468 15.5462 32.4083 14.7862 31.7985 14.1759ZM14.1466 31.3142C13.76 31.0276 13.2977 30.8608 12.8172 30.8346C12.3366 30.8084 11.859 30.9239 11.4434 31.1667L11.1731 31.3486L10.9446 31.5525L10.6374 31.9408C9.99847 32.8648 9.63477 34.1427 9.35216 35.337L9.08676 36.4871L8.96143 37.0105L9.4308 36.8975L10.458 36.6616C11.8784 36.3298 13.4536 35.8997 14.4219 35.0274C14.8429 34.6066 15.0968 34.0473 15.1366 33.4534C15.1764 32.8596 14.9992 32.2714 14.6381 31.7983L14.4366 31.5673L14.3776 31.5108L14.1466 31.3142Z" fill="#8E6CEF"/>
</svg>
