<svg width="52" height="52" viewBox="0 0 52 52" fill="none" xmlns="http://www.w3.org/2000/svg">
<path opacity="0.3" fill-rule="evenodd" clip-rule="evenodd" d="M22.4938 1.4503C23.3715 0.573654 24.546 0.0578239 25.7854 0.00457446C27.0248 -0.048675 28.2391 0.364524 29.1888 1.16265L29.5062 1.45278L34.2176 6.16175H40.8779C42.1287 6.16198 43.3332 6.6348 44.2501 7.48551C45.167 8.33621 45.7286 9.50196 45.8224 10.7492L45.8372 11.1212V17.7817L50.5486 22.4931C51.4259 23.371 51.9422 24.546 51.9954 25.786C52.0487 27.026 51.6351 28.2409 50.8362 29.1908L50.5461 29.5057L45.8348 34.2172V40.8777C45.8352 42.1289 45.3626 43.334 44.5119 44.2515C43.6611 45.1689 42.4951 45.7309 41.2474 45.8247L40.8779 45.8371H34.2201L29.5087 50.5486C28.6308 51.4259 27.4559 51.9422 26.2159 51.9954C24.9759 52.0487 23.761 51.6351 22.8112 50.8362L22.4962 50.5486L17.7849 45.8371H11.1221C9.87088 45.8375 8.66579 45.365 7.74837 44.5142C6.83094 43.6634 6.26898 42.4973 6.17514 41.2497L6.16274 40.8777V34.2172L1.4514 29.5057C0.57408 28.6278 0.0578244 27.4529 0.00457099 26.2129C-0.0486825 24.9729 0.364938 23.7579 1.16376 22.808L1.4514 22.4931L6.16274 17.7817V11.1212C6.16297 9.87039 6.63579 8.66589 7.48648 7.74897C8.33716 6.83205 9.50288 6.27043 10.7501 6.17663L11.1221 6.16175H17.7824L22.4938 1.4503Z" fill="#8E6CEF"/>
<path fill-rule="evenodd" clip-rule="evenodd" d="M33.9209 18.87L23.3716 29.0011L18.977 24.7806C18.5105 24.333 17.8781 24.0817 17.2187 24.0819C16.5593 24.0821 15.927 24.3339 15.461 24.7818C14.9949 25.2297 14.7332 25.8371 14.7334 26.4704C14.7336 27.1036 14.9958 27.7108 15.4622 28.1584L21.4378 33.8971C21.6917 34.1411 21.9932 34.3346 22.325 34.4666C22.6568 34.5987 23.0125 34.6666 23.3716 34.6666C23.7308 34.6666 24.0865 34.5987 24.4183 34.4666C24.7501 34.3346 25.0516 34.1411 25.3055 33.8971L37.4356 22.2455C37.8884 21.7952 38.139 21.1922 38.1333 20.5663C38.1276 19.9404 37.8662 19.3417 37.4054 18.8991C36.9445 18.4565 36.3211 18.2055 35.6693 18.2C35.0176 18.1946 34.3897 18.4352 33.9209 18.87Z" fill="#8E6CEF"/>
</svg>
