<svg width="22" height="21" viewBox="0 0 22 21" fill="none" xmlns="http://www.w3.org/2000/svg">
<path d="M10.0512 17.2197C10.3707 17.0252 10.7719 17.0252 11.0913 17.2197L15.9575 20.1825C16.7139 20.643 17.6514 19.9658 17.4519 19.1031L16.1543 13.4923C16.0712 13.1328 16.1928 12.7567 16.4706 12.514L20.7992 8.7312C21.4634 8.15071 21.1054 7.05708 20.2264 6.98186L14.5457 6.49568C14.1753 6.46398 13.8531 6.22942 13.7091 5.88667L11.4932 0.612655C11.15 -0.204216 9.99256 -0.204216 9.64936 0.612655L7.4335 5.88667C7.2895 6.22942 6.96725 6.46398 6.59684 6.49568L0.916176 6.98186C0.0372256 7.05708 -0.320843 8.15071 0.343414 8.7312L4.672 12.514C4.94982 12.7567 5.07138 13.1328 4.98825 13.4923L3.69071 19.1031C3.4912 19.9658 4.42871 20.643 5.18505 20.1825L10.0512 17.2197Z" fill="url(#paint0_linear_63_645)"/>
<defs>
<linearGradient id="paint0_linear_63_645" x1="10.5713" y1="-1.58167" x2="10.5713" y2="21.4183" gradientUnits="userSpaceOnUse">
<stop stop-color="#FFA12D"/>
<stop offset="1" stop-color="#FCC03F"/>
</linearGradient>
</defs>
</svg>
